<svg width="16" height="16" viewBox="0 0 16 16" fill="none" xmlns="http://www.w3.org/2000/svg">
    <path d="M2.2253 0.811078C1.83477 0.420558 1.20161 0.420558 0.811078 0.811078C0.420558 1.20161 0.420558 1.83477 0.811078 2.2253L6.5858 8L0.811139 13.7747C0.420619 14.1652 0.420619 14.7984 0.811139 15.1889C1.20167 15.5794 1.83483 15.5794 2.22535 15.1889L8 9.4142L13.7747 15.1889C14.1652 15.5794 14.7984 15.5794 15.1889 15.1889C15.5794 14.7984 15.5794 14.1652 15.1889 13.7747L9.4142 8L15.189 2.2253C15.5795 1.83477 15.5795 1.20161 15.189 0.811078C14.7985 0.420558 14.1653 0.420558 13.7748 0.811078L8 6.5858L2.2253 0.811078Z" fill="black"/>
</svg>
