<svg width="13" height="13" viewBox="0 0 13 13" fill="none" xmlns="http://www.w3.org/2000/svg">
    <path fill-rule="evenodd" clip-rule="evenodd" d="M9.44938 9.02038C10.9768 7.05881 10.8387 4.22092 9.03556 2.41768C7.08294 0.465062 3.91709 0.465062 1.96447 2.41768C0.0118438 4.37031 0.0118438 7.53613 1.96447 9.48875C3.76771 11.292 6.60562 11.4299 8.56719 9.90263C8.57562 9.91219 8.58444 9.92156 8.59356 9.93069L11.2452 12.5823C11.4893 12.8264 11.8851 12.8264 12.1291 12.5823C12.3732 12.3383 12.3732 11.9426 12.1291 11.6984L9.4775 9.04681C9.46831 9.03769 9.45894 9.02888 9.44938 9.02038ZM8.15162 3.30157C9.61613 4.76603 9.61613 7.14038 8.15162 8.60488C6.68719 10.0693 4.31281 10.0693 2.84835 8.60488C1.38388 7.14038 1.38388 4.76603 2.84835 3.30157C4.31281 1.8371 6.68719 1.8371 8.15162 3.30157Z" fill="black"/>
</svg>
